<svg width="184" height="103" viewBox="0 0 184 103" fill="none" xmlns="http://www.w3.org/2000/svg">
<circle cx="41" cy="51.4746" r="15" fill="url(#paint0_linear_3000_4054)"/>
<circle cx="41" cy="51.4746" r="15" fill="url(#paint1_linear_3000_4054)" fill-opacity="0.8"/>
<rect x="26" y="38.9746" width="3" height="36" rx="1.5" transform="rotate(-30 26 38.9746)" fill="#232429"/>
<rect x="39" y="33.7773" width="3" height="36" rx="1.5" transform="rotate(-15 39 33.7773)" fill="#232429"/>
<path d="M64.7113 51.9762C64.7113 50.8775 64.9566 49.8962 65.4473 49.0322C65.9486 48.1575 66.6259 47.4802 67.4793 47.0002C68.3433 46.5095 69.3086 46.2642 70.3753 46.2642C71.6233 46.2642 72.7166 46.5842 73.6553 47.2242C74.5939 47.8642 75.2499 48.7495 75.6233 49.8802H73.0473C72.7913 49.3468 72.4286 48.9468 71.9593 48.6802C71.5006 48.4135 70.9673 48.2802 70.3593 48.2802C69.7086 48.2802 69.1273 48.4348 68.6153 48.7442C68.1139 49.0428 67.7193 49.4695 67.4313 50.0242C67.1539 50.5788 67.0153 51.2295 67.0153 51.9762C67.0153 52.7122 67.1539 53.3628 67.4313 53.9282C67.7193 54.4828 68.1139 54.9148 68.6153 55.2242C69.1273 55.5228 69.7086 55.6722 70.3593 55.6722C70.9673 55.6722 71.5006 55.5388 71.9593 55.2722C72.4286 54.9948 72.7913 54.5895 73.0473 54.0562H75.6233C75.2499 55.1975 74.5939 56.0882 73.6553 56.7282C72.7273 57.3575 71.6339 57.6722 70.3753 57.6722C69.3086 57.6722 68.3433 57.4322 67.4793 56.9522C66.6259 56.4615 65.9486 55.7842 65.4473 54.9202C64.9566 54.0562 64.7113 53.0748 64.7113 51.9762ZM82.8485 48.5842C83.5205 48.5842 84.1178 48.7335 84.6405 49.0322C85.1632 49.3202 85.5685 49.7522 85.8565 50.3282C86.1552 50.8935 86.3045 51.5762 86.3045 52.3762V57.5762H84.0645V52.6802C84.0645 51.9762 83.8885 51.4375 83.5365 51.0642C83.1845 50.6802 82.7045 50.4882 82.0965 50.4882C81.4778 50.4882 80.9872 50.6802 80.6245 51.0642C80.2725 51.4375 80.0965 51.9762 80.0965 52.6802V57.5762H77.8565V45.7362H80.0965V49.8162C80.3845 49.4322 80.7685 49.1335 81.2485 48.9202C81.7285 48.6962 82.2618 48.5842 82.8485 48.5842ZM92.6906 57.7202C91.8373 57.7202 91.0693 57.5335 90.3866 57.1602C89.704 56.7762 89.1653 56.2375 88.7706 55.5442C88.3866 54.8508 88.1946 54.0508 88.1946 53.1442C88.1946 52.2375 88.392 51.4375 88.7866 50.7442C89.192 50.0508 89.7413 49.5175 90.4346 49.1442C91.128 48.7602 91.9013 48.5682 92.7546 48.5682C93.608 48.5682 94.3813 48.7602 95.0746 49.1442C95.768 49.5175 96.312 50.0508 96.7066 50.7442C97.112 51.4375 97.3146 52.2375 97.3146 53.1442C97.3146 54.0508 97.1066 54.8508 96.6906 55.5442C96.2853 56.2375 95.7306 56.7762 95.0266 57.1602C94.3333 57.5335 93.5546 57.7202 92.6906 57.7202ZM92.6906 55.7682C93.096 55.7682 93.4746 55.6722 93.8266 55.4802C94.1893 55.2775 94.4773 54.9788 94.6906 54.5842C94.904 54.1895 95.0106 53.7095 95.0106 53.1442C95.0106 52.3015 94.7866 51.6562 94.3386 51.2082C93.9013 50.7495 93.3626 50.5202 92.7226 50.5202C92.0826 50.5202 91.544 50.7495 91.1066 51.2082C90.68 51.6562 90.4666 52.3015 90.4666 53.1442C90.4666 53.9868 90.6746 54.6375 91.0906 55.0962C91.5173 55.5442 92.0506 55.7682 92.6906 55.7682ZM101.518 49.9922C101.806 49.5868 102.2 49.2508 102.702 48.9842C103.214 48.7068 103.795 48.5682 104.446 48.5682C105.203 48.5682 105.886 48.7548 106.494 49.1282C107.112 49.5015 107.598 50.0348 107.95 50.7282C108.312 51.4108 108.494 52.2055 108.494 53.1122C108.494 54.0188 108.312 54.8242 107.95 55.5282C107.598 56.2215 107.112 56.7602 106.494 57.1442C105.886 57.5282 105.203 57.7202 104.446 57.7202C103.795 57.7202 103.219 57.5868 102.718 57.3202C102.227 57.0535 101.827 56.7175 101.518 56.3122V61.8002H99.2778V48.7122H101.518V49.9922ZM106.206 53.1122C106.206 52.5788 106.094 52.1202 105.87 51.7362C105.656 51.3415 105.368 51.0428 105.006 50.8402C104.654 50.6375 104.27 50.5362 103.854 50.5362C103.448 50.5362 103.064 50.6428 102.702 50.8562C102.35 51.0588 102.062 51.3575 101.838 51.7522C101.624 52.1468 101.518 52.6108 101.518 53.1442C101.518 53.6775 101.624 54.1415 101.838 54.5362C102.062 54.9308 102.35 55.2348 102.702 55.4482C103.064 55.6508 103.448 55.7522 103.854 55.7522C104.27 55.7522 104.654 55.6455 105.006 55.4322C105.368 55.2188 105.656 54.9148 105.87 54.5202C106.094 54.1255 106.206 53.6562 106.206 53.1122ZM113.834 57.7202C113.108 57.7202 112.458 57.5922 111.882 57.3362C111.306 57.0695 110.847 56.7122 110.506 56.2642C110.175 55.8162 109.994 55.3202 109.962 54.7762H112.218C112.26 55.1175 112.426 55.4002 112.714 55.6242C113.012 55.8482 113.38 55.9602 113.818 55.9602C114.244 55.9602 114.575 55.8748 114.81 55.7042C115.055 55.5335 115.178 55.3148 115.178 55.0482C115.178 54.7602 115.028 54.5468 114.73 54.4082C114.442 54.2588 113.978 54.0988 113.338 53.9282C112.676 53.7682 112.132 53.6028 111.706 53.4322C111.29 53.2615 110.927 53.0002 110.618 52.6482C110.319 52.2962 110.17 51.8215 110.17 51.2242C110.17 50.7335 110.308 50.2855 110.586 49.8802C110.874 49.4748 111.279 49.1548 111.802 48.9202C112.335 48.6855 112.959 48.5682 113.674 48.5682C114.73 48.5682 115.572 48.8348 116.202 49.3682C116.831 49.8908 117.178 50.6002 117.242 51.4962H115.098C115.066 51.1442 114.916 50.8668 114.65 50.6642C114.394 50.4508 114.047 50.3442 113.61 50.3442C113.204 50.3442 112.89 50.4188 112.666 50.5682C112.452 50.7175 112.346 50.9255 112.346 51.1922C112.346 51.4908 112.495 51.7202 112.794 51.8802C113.092 52.0295 113.556 52.1842 114.186 52.3442C114.826 52.5042 115.354 52.6695 115.77 52.8402C116.186 53.0108 116.543 53.2775 116.842 53.6402C117.151 53.9922 117.311 54.4615 117.322 55.0482C117.322 55.5602 117.178 56.0188 116.89 56.4242C116.612 56.8295 116.207 57.1495 115.674 57.3842C115.151 57.6082 114.538 57.7202 113.834 57.7202ZM122.088 50.5522V54.8402C122.088 55.1388 122.158 55.3575 122.296 55.4962C122.446 55.6242 122.691 55.6882 123.032 55.6882H124.072V57.5762H122.664C120.776 57.5762 119.832 56.6588 119.832 54.8242V50.5522H118.776V48.7122H119.832V46.5202H122.088V48.7122H124.072V50.5522H122.088ZM127.139 47.6562C126.745 47.6562 126.414 47.5335 126.147 47.2882C125.891 47.0322 125.763 46.7175 125.763 46.3442C125.763 45.9708 125.891 45.6615 126.147 45.4162C126.414 45.1602 126.745 45.0322 127.139 45.0322C127.534 45.0322 127.859 45.1602 128.115 45.4162C128.382 45.6615 128.515 45.9708 128.515 46.3442C128.515 46.7175 128.382 47.0322 128.115 47.2882C127.859 47.5335 127.534 47.6562 127.139 47.6562ZM128.243 48.7122V57.5762H126.003V48.7122H128.243ZM130.201 53.1442C130.201 52.2268 130.387 51.4268 130.761 50.7442C131.134 50.0508 131.651 49.5175 132.313 49.1442C132.974 48.7602 133.731 48.5682 134.585 48.5682C135.683 48.5682 136.59 48.8455 137.305 49.4002C138.03 49.9442 138.515 50.7122 138.761 51.7042H136.345C136.217 51.3202 135.998 51.0215 135.689 50.8082C135.39 50.5842 135.017 50.4722 134.569 50.4722C133.929 50.4722 133.422 50.7068 133.049 51.1762C132.675 51.6348 132.489 52.2908 132.489 53.1442C132.489 53.9868 132.675 54.6428 133.049 55.1122C133.422 55.5708 133.929 55.8002 134.569 55.8002C135.475 55.8002 136.067 55.3948 136.345 54.5842H138.761C138.515 55.5442 138.03 56.3068 137.305 56.8722C136.579 57.4375 135.673 57.7202 134.585 57.7202C133.731 57.7202 132.974 57.5335 132.313 57.1602C131.651 56.7762 131.134 56.2428 130.761 55.5602C130.387 54.8668 130.201 54.0615 130.201 53.1442ZM145.97 57.5762L142.962 53.8002V57.5762H140.722V45.7362H142.962V52.4722L145.938 48.7122H148.85L144.946 53.1602L148.882 57.5762H145.97ZM153.777 57.7202C153.052 57.7202 152.401 57.5922 151.825 57.3362C151.249 57.0695 150.791 56.7122 150.449 56.2642C150.119 55.8162 149.937 55.3202 149.905 54.7762H152.161C152.204 55.1175 152.369 55.4002 152.657 55.6242C152.956 55.8482 153.324 55.9602 153.761 55.9602C154.188 55.9602 154.519 55.8748 154.753 55.7042C154.999 55.5335 155.121 55.3148 155.121 55.0482C155.121 54.7602 154.972 54.5468 154.673 54.4082C154.385 54.2588 153.921 54.0988 153.281 53.9282C152.62 53.7682 152.076 53.6028 151.649 53.4322C151.233 53.2615 150.871 53.0002 150.561 52.6482C150.263 52.2962 150.113 51.8215 150.113 51.2242C150.113 50.7335 150.252 50.2855 150.529 49.8802C150.817 49.4748 151.223 49.1548 151.745 48.9202C152.279 48.6855 152.903 48.5682 153.617 48.5682C154.673 48.5682 155.516 48.8348 156.145 49.3682C156.775 49.8908 157.121 50.6002 157.185 51.4962H155.041C155.009 51.1442 154.86 50.8668 154.593 50.6642C154.337 50.4508 153.991 50.3442 153.553 50.3442C153.148 50.3442 152.833 50.4188 152.609 50.5682C152.396 50.7175 152.289 50.9255 152.289 51.1922C152.289 51.4908 152.439 51.7202 152.737 51.8802C153.036 52.0295 153.5 52.1842 154.129 52.3442C154.769 52.5042 155.297 52.6695 155.713 52.8402C156.129 53.0108 156.487 53.2775 156.785 53.6402C157.095 53.9922 157.255 54.4615 157.265 55.0482C157.265 55.5602 157.121 56.0188 156.833 56.4242C156.556 56.8295 156.151 57.1495 155.617 57.3842C155.095 57.6082 154.481 57.7202 153.777 57.7202Z" fill="#313131"/>
<defs>
<linearGradient id="paint0_linear_3000_4054" x1="62.285" y1="74.9229" x2="24.7505" y2="36.7297" gradientUnits="userSpaceOnUse">
<stop stop-color="#E40C5B" stop-opacity="0.88"/>
<stop offset="1" stop-color="#FF4C3B"/>
</linearGradient>
<linearGradient id="paint1_linear_3000_4054" x1="22.985" y1="31.4036" x2="67.766" y2="45.6506" gradientUnits="userSpaceOnUse">
<stop stop-color="white" stop-opacity="0.53"/>
<stop offset="1" stop-color="white" stop-opacity="0"/>
</linearGradient>
</defs>
</svg>
